<?xml version="1.0" standalone="no"?>
<!DOCTYPE svg PUBLIC "-//W3C//DTD SVG 20010904//EN"
 "http://www.w3.org/TR/2001/REC-SVG-20010904/DTD/svg10.dtd">
<svg version="1.0" xmlns="http://www.w3.org/2000/svg"
 width="368.000000pt" height="512.000000pt" viewBox="0 0 368.000000 512.000000"
 preserveAspectRatio="xMidYMid meet">

<g transform="translate(0.000000,512.000000) scale(0.100000,-0.100000)"
fill="#000000" stroke="none">
<path d="M1725 5114 c-455 -46 -829 -219 -1135 -524 -276 -277 -451 -625 -511
-1020 -17 -111 -17 -403 0 -505 35 -214 94 -395 185 -570 85 -161 1489 -2423
1526 -2457 55 -51 150 -47 201 9 23 25 1345 2223 1442 2398 91 165 166 376
204 579 23 125 23 442 0 581 -129 767 -728 1367 -1487 1490 -95 15 -350 27
-425 19z m360 -921 c282 -79 501 -271 608 -533 54 -132 62 -178 62 -345 -1
-109 -6 -167 -18 -211 -98 -353 -365 -604 -712 -669 -113 -22 -286 -15 -395
14 -96 26 -258 108 -337 171 -132 106 -245 278 -299 455 -25 82 -28 105 -28
245 0 140 3 164 28 245 101 332 351 562 697 640 89 20 300 14 394 -12z"/>
<path d="M1730 3904 c-265 -57 -470 -311 -470 -584 0 -276 205 -528 475 -585
205 -43 397 15 546 164 154 154 212 359 159 565 -29 113 -73 190 -160 277
-147 149 -345 208 -550 163z"/>
</g>
</svg>
